<svg width="26" height="33" viewBox="0 0 26 33" fill="none" xmlns="http://www.w3.org/2000/svg">
<path d="M6.47111 0H0V1.9043H5.08444L7.01037 7.61719H9.03259L6.47111 0Z" fill="#4E5156"/>
<path d="M18.2963 19.9951C18.2963 19.0802 18.1007 18.1624 17.7321 17.3423L17.7302 17.3405C17.2751 16.3353 17.1791 15.1275 17.4462 13.8555C17.4852 13.6767 17.5464 13.5067 17.5939 13.3301H5.50804C5.87994 14.6972 5.81664 16.1856 5.26435 17.6C4.81297 18.7697 4.69633 20.0277 4.92583 21.2328C5.40661 23.823 7.59009 26.163 10.5926 26.5724V30.5957H5.7778V32.5H17.3333V30.5957H12.5185V26.5696C15.9502 26.0762 18.2963 23.2098 18.2963 19.9951Z" fill="#4E5156"/>
<path d="M4.85339 11.4258H8.30073L7.01036 7.61719H3.42821L4.85339 11.4258Z" fill="#4E5156"/>
<path d="M18.2577 11.4258L19.6829 7.61719H9.0326L10.323 11.4258H18.2577Z" fill="#4E5156"/>
<path d="M19.2594 1.9043C16.5807 1.9043 14.2811 3.46931 13.1948 5.71289H22.453L19.5791 13.3552C19.4757 13.636 19.3966 13.9466 19.329 14.2572C19.2569 14.6001 19.2514 14.9204 19.2529 15.2363C19.2582 15.2363 19.2635 15.2381 19.2688 15.2381C20.5383 15.2381 21.7739 14.8903 22.8724 14.1995C24.8303 12.9684 26.0001 10.8641 26.0001 8.56933C26.0001 4.89461 22.9758 1.9043 19.2594 1.9043Z" fill="#4E5156"/>
</svg>
