<svg width="30" height="30" viewBox="0 0 30 30" fill="none" xmlns="http://www.w3.org/2000/svg">
<path d="M25.4464 11.579C25.3439 11.579 25.2453 11.5938 25.1453 11.6031C25.0617 10.919 24.8069 10.266 24.4037 9.70233L21.4449 14.7369H28.6607C28.6607 13.8994 28.3221 13.0962 27.7193 12.5039C27.1165 11.9117 26.2989 11.579 25.4464 11.579Z" fill="white"/>
<path d="M20.5043 7.91578C20.0213 7.95874 19.5493 8.08204 19.1084 8.28041C18.8468 7.4092 18.3053 6.64453 17.5648 6.10065C16.8243 5.55677 15.9245 5.26288 15 5.26288C14.0754 5.26288 13.1757 5.55677 12.4352 6.10065C11.6947 6.64453 11.1531 7.4092 10.8915 8.28041C10.2786 8.00281 9.60754 7.87168 8.93316 7.89775C8.25878 7.92382 7.60026 8.10634 7.01144 8.43039C6.42263 8.75444 5.92026 9.21082 5.5454 9.7622C5.17054 10.3136 4.93384 10.9443 4.85467 11.6028C4.75465 11.5937 4.65613 11.5789 4.55355 11.5789C3.70106 11.5789 2.8835 11.9116 2.2807 12.5039C1.67791 13.0961 1.33926 13.8993 1.33926 14.7368H16.4961L20.5043 7.91578Z" fill="white"/>
<path d="M20.2077 14.7369L28.2493 1.05263L26.3936 0L17.7333 14.7369H20.2077Z" fill="white"/>
<path d="M19.4245 6.53043L22.6436 1.05263L20.7878 0L17.8357 5.02364C18.4652 5.41311 19.0061 5.92608 19.4245 6.53043Z" fill="white"/>
<path d="M9.64284 28.4211H20.3571V30.0001H9.64284V28.4211Z" fill="white"/>
<path d="M0 15.7895V17.8948C0 20.4073 1.01594 22.817 2.82433 24.5937C4.63271 26.3703 7.08541 27.3684 9.64286 27.3684H20.3571C22.9146 27.3684 25.3673 26.3703 27.1757 24.5937C28.9841 22.817 30 20.4073 30 17.8948V15.7895H0Z" fill="white"/>
</svg>
