<svg width="16" height="20" viewBox="0 0 16 20" fill="none" xmlns="http://www.w3.org/2000/svg">
<path d="M14.5104 4.63122H12.2381V4.48216C12.2381 2.01067 10.2274 0 7.75592 0H7.37879C4.9073 0 2.89663 2.01071 2.89663 4.48216V4.63122H0.599654C0.26854 4.63122 0 4.89968 0 5.23083V19.1416C0 19.4728 0.26854 19.7412 0.599654 19.7412H14.5104C14.8416 19.7412 15.11 19.4727 15.11 19.1416V5.23083C15.1101 4.89964 14.8416 4.63122 14.5104 4.63122ZM4.31204 4.48216C4.31204 2.79119 5.68778 1.41541 7.37879 1.41541H7.75592C9.44693 1.41541 10.8166 2.79119 10.8166 4.48216L10.8158 5.94765C10.8158 6.33843 10.503 6.65518 10.1123 6.65518C9.72145 6.65518 9.40475 6.33839 9.40475 5.94765C9.40475 5.94602 9.40506 5.94438 9.40506 5.94275L9.40431 4.63126H5.72692V5.94275H5.72669C5.72669 5.94438 5.72692 5.94602 5.72692 5.94765C5.72692 6.33843 5.41014 6.65518 5.0194 6.65518C4.62862 6.65518 4.31188 6.33839 4.31188 5.94765L4.31204 4.48216Z" fill="#4E5156"/>
</svg>
